<svg width="201" height="200" viewBox="0 0 201 200" fill="none" xmlns="http://www.w3.org/2000/svg">
<path d="M190.748 143.162C203.751 156.165 203.751 177.246 190.748 190.248C177.746 203.251 156.665 203.251 143.662 190.248C130.66 177.246 130.66 156.165 143.662 143.162C156.665 130.16 177.746 130.16 190.748 143.162Z" fill="#FF5050"/>
<path d="M135.814 41.1425C148.817 28.1401 169.898 28.1401 182.9 41.1425C195.903 54.1449 195.903 75.2261 182.9 88.2285L135.814 135.314L88.7285 182.4C75.7261 195.403 54.6449 195.403 41.6425 182.4C28.6401 169.398 28.6401 148.317 41.6425 135.314L88.7285 88.2285L135.814 41.1425Z" fill="#FFD040"/>
<path d="M57.3378 9.75183C70.3403 -3.25061 91.4214 -3.25061 104.424 9.75183C117.426 22.7543 117.426 43.8354 104.424 56.8378L57.3378 103.924C44.3354 116.926 23.2543 116.926 10.2518 103.924C-2.75061 90.9214 -2.75061 69.8403 10.2518 56.8378L57.3378 9.75183Z" fill="#43AFB3"/>
</svg>
